<svg width="417" height="77" viewBox="0 0 417 77" fill="none" xmlns="http://www.w3.org/2000/svg">
<path d="M0 61.0231V4.21614H24.5102C28.7247 4.21614 32.4123 5.04827 35.5731 6.71254C38.734 8.3768 41.1924 10.716 42.9484 13.7302C44.7044 16.7444 45.5824 20.2671 45.5824 24.2983C45.5824 28.3665 44.6767 31.8892 42.8652 34.8664C41.0722 37.8435 38.5491 40.1365 35.2959 41.7453C32.0611 43.3541 28.2811 44.1585 23.9557 44.1585H9.31611V32.1758H20.8503C22.6618 32.1758 24.2053 31.8614 25.4807 31.2327C26.7746 30.5855 27.7635 29.6702 28.4474 28.4867C29.1498 27.3032 29.501 25.9071 29.501 24.2983C29.501 22.671 29.1498 21.2841 28.4474 20.1376C27.7635 18.9726 26.7746 18.085 25.4807 17.4748C24.2053 16.8461 22.6618 16.5317 20.8503 16.5317H15.4159V61.0231H0Z" fill="white"/>
<path d="M66.7655 4.21614V61.0231H51.4604V4.21614H66.7655Z" fill="white"/>
<path d="M86.4305 61.6888C83.7133 61.6888 81.3103 61.245 79.2216 60.3574C77.1514 59.4513 75.5247 58.0829 74.3417 56.2522C73.1587 54.4215 72.5672 52.0915 72.5672 49.2622C72.5672 46.9323 72.9647 44.9444 73.7595 43.2986C74.5543 41.6344 75.6634 40.2752 77.0867 39.2212C78.51 38.1672 80.1643 37.3628 82.0497 36.808C83.9536 36.2532 86.0054 35.8927 88.205 35.7262C90.5895 35.5413 92.5026 35.3194 93.9444 35.0605C95.4047 34.7831 96.4583 34.4041 97.1052 33.9233C97.7522 33.424 98.0757 32.7675 98.0757 31.9539V31.8429C98.0757 30.7334 97.6505 29.8828 96.8002 29.2911C95.95 28.6993 94.8594 28.4035 93.5285 28.4035C92.0682 28.4035 90.876 28.7271 89.9518 29.3743C89.046 30.003 88.5008 30.9738 88.3159 32.2867H74.2308C74.4157 29.6979 75.2382 27.3124 76.6985 25.1304C78.1772 22.9299 80.3307 21.1732 83.1588 19.8602C85.9869 18.5288 89.5174 17.8631 93.7503 17.8631C96.8002 17.8631 99.5359 18.2237 101.957 18.9449C104.379 19.6476 106.44 20.6369 108.14 21.9128C109.841 23.1703 111.135 24.6496 112.022 26.3509C112.928 28.0336 113.381 29.8643 113.381 31.8429V61.0231H99.0738V55.0317H98.7411C97.8908 56.622 96.8557 57.9072 95.6357 58.8872C94.4342 59.8673 93.0571 60.5793 91.5045 61.0231C89.9703 61.4669 88.2789 61.6888 86.4305 61.6888ZM91.4213 52.036C92.5858 52.036 93.6764 51.7956 94.693 51.3148C95.7281 50.8341 96.5692 50.1406 97.2161 49.2345C97.8631 48.3284 98.1866 47.2281 98.1866 45.9337V42.3833C97.7799 42.5497 97.3455 42.7069 96.8834 42.8548C96.4398 43.0028 95.9592 43.1415 95.4416 43.2709C94.9425 43.4003 94.4065 43.5205 93.8335 43.6315C93.279 43.7424 92.6967 43.8441 92.0867 43.9366C90.9037 44.1215 89.9333 44.4266 89.1754 44.8519C88.4361 45.2588 87.8815 45.7673 87.5118 46.3775C87.1606 46.9693 86.985 47.635 86.985 48.3746C86.985 49.5581 87.4009 50.4642 88.2327 51.0929C89.0645 51.7217 90.1274 52.036 91.4213 52.036Z" fill="white"/>
<path d="M128.485 77C126.729 77 125.056 76.8613 123.466 76.5839C121.877 76.3251 120.481 75.9645 119.28 75.5022L122.607 64.629C123.864 65.0728 125.01 65.3594 126.045 65.4888C127.098 65.6183 127.995 65.5443 128.734 65.2669C129.492 64.9896 130.037 64.4625 130.37 63.6859L130.703 62.9092L115.731 18.4179H131.701L138.577 47.9308H139.021L146.008 18.4179H162.089L146.562 64.5735C145.786 66.922 144.659 69.03 143.18 70.8977C141.72 72.7839 139.797 74.2725 137.413 75.3635C135.028 76.4545 132.052 77 128.485 77Z" fill="white"/>
<path d="M243.889 37.0576V61.0231H228.584V18.4179H243.113V26.5173H243.557C244.481 23.8175 246.108 21.7002 248.437 20.1653C250.784 18.6305 253.52 17.8631 256.644 17.8631C259.657 17.8631 262.272 18.5566 264.49 19.9434C266.727 21.3118 268.455 23.198 269.675 25.6019C270.914 28.0059 271.524 30.7519 271.505 33.8401V61.0231H256.2V37.0576C256.218 34.9496 255.682 33.2945 254.592 32.0926C253.52 30.8906 252.023 30.2896 250.1 30.2896C248.843 30.2896 247.743 30.567 246.801 31.1218C245.877 31.658 245.165 32.4347 244.666 33.4517C244.167 34.4503 243.908 35.6523 243.889 37.0576Z" fill="white"/>
<path d="M294.366 4.21614V61.0231H279.061V4.21614H294.366Z" fill="white"/>
<path d="M302.164 61.0231V18.4179H317.469V61.0231H302.164ZM309.816 13.9798C307.746 13.9798 305.971 13.2956 304.493 11.9272C303.014 10.5588 302.275 8.91306 302.275 6.98991C302.275 5.06676 303.014 3.42099 304.493 2.05259C305.971 0.684197 307.746 0 309.816 0C311.905 0 313.679 0.684197 315.14 2.05259C316.618 3.42099 317.358 5.06676 317.358 6.98991C317.358 8.91306 316.618 10.5588 315.14 11.9272C313.679 13.2956 311.905 13.9798 309.816 13.9798Z" fill="white"/>
<path d="M340.572 37.0576V61.0231H325.267V18.4179H339.796V26.5173H340.239C341.163 23.8175 342.79 21.7002 345.119 20.1653C347.467 18.6305 350.202 17.8631 353.326 17.8631C356.339 17.8631 358.955 18.5566 361.173 19.9434C363.409 21.3118 365.138 23.198 366.358 25.6019C367.596 28.0059 368.206 30.7519 368.187 33.8401V61.0231H352.882V37.0576C352.901 34.9496 352.365 33.2945 351.274 32.0926C350.202 30.8906 348.705 30.2896 346.783 30.2896C345.526 30.2896 344.426 30.567 343.483 31.1218C342.559 31.658 341.847 32.4347 341.348 33.4517C340.849 34.4503 340.59 35.6523 340.572 37.0576Z" fill="white"/>
<path d="M396.15 61.7997C391.603 61.7997 387.684 60.9306 384.394 59.1924C381.122 57.4356 378.599 54.9208 376.824 51.6477C375.068 48.3562 374.19 44.4174 374.19 39.8314C374.19 35.4304 375.078 31.5841 376.852 28.2925C378.627 25.001 381.131 22.4398 384.366 20.6091C387.601 18.7785 391.418 17.8631 395.817 17.8631C399.033 17.8631 401.945 18.3624 404.551 19.361C407.157 20.3595 409.384 21.8111 411.233 23.7158C413.081 25.6019 414.505 27.8949 415.503 30.5947C416.501 33.2945 417 36.3365 417 39.7205V43.2709H378.959V34.8386H402.915C402.896 33.6182 402.582 32.5456 401.972 31.621C401.381 30.678 400.577 29.9475 399.56 29.4298C398.562 28.8935 397.425 28.6254 396.15 28.6254C394.911 28.6254 393.774 28.8935 392.739 29.4298C391.704 29.9475 390.872 30.6687 390.244 31.5933C389.634 32.5179 389.31 33.5997 389.273 34.8386V43.9366C389.273 45.305 389.56 46.5255 390.133 47.598C390.706 48.6705 391.529 49.5119 392.601 50.1221C393.673 50.7324 394.967 51.0375 396.482 51.0375C397.536 51.0375 398.497 50.8895 399.366 50.5937C400.253 50.2978 401.011 49.8725 401.64 49.3177C402.268 48.7445 402.73 48.0603 403.026 47.2651H417C416.519 50.2238 415.383 52.7942 413.59 54.9762C411.797 57.1398 409.421 58.8225 406.464 60.0245C403.525 61.208 400.087 61.7997 396.15 61.7997Z" fill="white"/>
<path fill-rule="evenodd" clip-rule="evenodd" d="M221.23 32.6196C221.23 38.9438 220.001 44.2787 217.542 48.6243C215.084 52.9514 211.766 56.2337 207.589 58.4712C203.411 60.6902 198.753 61.7997 193.614 61.7997C188.439 61.7997 183.762 60.681 179.585 58.4434C175.426 56.1874 172.117 52.8959 169.659 48.5688C167.219 44.2232 165.999 38.9068 165.999 32.6196C165.999 26.2954 167.219 20.9697 169.659 16.6427C172.117 12.2971 175.426 9.01477 179.585 6.79575C183.762 4.55823 188.439 3.43948 193.614 3.43948C198.753 3.43948 203.411 4.55823 207.589 6.79575C211.766 9.01477 215.084 12.2971 217.542 16.6427C220.001 20.9697 221.23 26.2954 221.23 32.6196ZM193.614 48.3746C191.063 48.3746 188.91 47.7737 187.154 46.5717C186.188 45.8929 185.35 45.0426 184.641 44.0206C184.147 44.9275 183.766 45.5916 183.637 45.7597C182.884 46.7388 181.653 47.5293 180.362 47.8626C179.658 48.0444 178.379 48.046 177.617 47.866C174.979 47.2439 173.005 44.7307 173 41.9872C172.999 41.2786 173.524 37.1326 174.353 31.3119C174.797 28.198 175.012 27.2707 175.62 25.8703C177.371 21.8297 181.066 18.8883 185.328 18.1418C185.683 18.0795 186.429 18.0443 188.278 18.0246C189.805 17.2512 191.584 16.8646 193.614 16.8646C195.628 16.8646 197.389 17.2449 198.896 18.0057C202.72 18.0298 203.073 18.1435 204.468 18.6051C208.721 20.0123 211.966 23.525 213.075 27.9225C213.439 29.3674 215.002 40.7884 215 41.9883C214.995 44.7306 213.021 47.244 210.383 47.866C209.621 48.046 208.342 48.0444 207.638 47.8626C206.348 47.5295 205.116 46.7388 204.365 45.7617C204.206 45.5552 203.665 44.5951 203.001 43.3554C202.213 44.6786 201.228 45.7507 200.047 46.5717C198.309 47.7737 196.165 48.3746 193.614 48.3746Z" fill="white"/>
<path fill-rule="evenodd" clip-rule="evenodd" d="M193.913 18.0019C191.354 18.0047 189.554 18.0109 188.278 18.0246C189.805 17.2512 191.584 16.8646 193.614 16.8646C195.628 16.8646 197.389 17.2449 198.896 18.0057C197.653 17.9979 196.044 17.9996 193.913 18.0019ZM184.641 44.0206C185.04 43.2877 185.512 42.3962 185.985 41.4799C187.043 39.43 187.955 37.6965 188.012 37.6275C188.168 37.4401 199.834 37.4422 199.989 37.6297C200.048 37.6998 200.96 39.4342 202.018 41.4841C202.355 42.1366 202.691 42.7765 203.001 43.3554C202.213 44.6786 201.228 45.7507 200.047 46.5717C198.309 47.7737 196.165 48.3746 193.614 48.3746C191.063 48.3746 188.91 47.7737 187.154 46.5717C186.188 45.8929 185.35 45.0426 184.641 44.0206ZM203.383 22.5924C202.429 22.3867 201.472 22.8977 201.138 23.8929C200.486 25.8426 203.002 27.3104 204.425 25.8103C204.47 25.763 204.512 25.7142 204.551 25.6642C205.263 24.7534 205.025 23.4219 204.002 22.8331C203.8 22.7169 203.592 22.6374 203.383 22.5924ZM205.075 28.2067C205.067 28.2948 205.063 28.3909 205.063 28.4982C205.063 28.8406 205.098 29.07 205.209 29.2932C205.289 29.4526 205.407 29.6089 205.581 29.8009C207.197 31.591 209.945 29.3919 208.589 27.393C208.427 27.1536 208.136 26.8806 207.931 26.7761C207.099 26.3503 206.163 26.5278 205.548 27.2277C205.232 27.5883 205.109 27.8221 205.075 28.2067ZM181.954 29.9974L180.546 29.952V27.0444L182.355 26.986L183.452 26.9506L183.477 25.5906C183.49 24.8426 183.521 24.1768 183.545 24.111C183.579 24.0194 183.926 23.9974 185.021 24.0172L186.453 24.0431L186.546 26.9506L189.453 27.0444V29.952L186.546 30.0457L186.453 32.9533H183.546L183.452 30.0457L181.954 29.9974ZM204.836 31.8327C204.67 31.3984 204.095 30.8042 203.693 30.6512C203.332 30.5141 202.518 30.5456 202.204 30.7086C200.81 31.431 200.645 33.24 201.896 34.0887C202.631 34.5879 203.426 34.5783 204.157 34.0615C204.846 33.5744 205.137 32.621 204.836 31.8327Z" fill="white"/>
<path d="M199.699 26.6742C200.442 26.9847 200.938 27.7113 200.938 28.4883C200.938 29.0739 200.843 29.3238 200.453 29.7687C199.254 31.1351 197.061 30.321 197.063 28.5102C197.066 27.1068 198.441 26.1486 199.699 26.6742Z" fill="white"/>
</svg>
