<svg fill="none" height="100" viewBox="0 0 100 100" width="100" xmlns="http://www.w3.org/2000/svg" xmlns:xlink="http://www.w3.org/1999/xlink"><clipPath id="a"><path d="m20 20h60v60h-60z"/></clipPath><circle cx="50" cy="50" fill="#fff" r="50"/><g clip-path="url(#a)"><path d="m37.5 42.5001v-2.5c0-.6631-.2634-1.2989-.7322-1.7678-.4689-.4688-1.1048-.7322-1.7678-.7322s-1.2989.2634-1.7678.7322c-.4688.4689-.7322 1.1047-.7322 1.7678v2.5h-2.5c-.663 0-1.2989.2634-1.7678.7322-.4688.4689-.7322 1.1047-.7322 1.7678 0 .663.2634 1.2989.7322 1.7678.4689.4688 1.1048.7322 1.7678.7322h2.5v2.5c0 .663.2634 1.2989.7322 1.7678.4689.4688 1.1048.7322 1.7678.7322s1.2989-.2634 1.7678-.7322c.4688-.4689.7322-1.1048.7322-1.7678v-2.5h2.5c.663 0 1.2989-.2634 1.7678-.7322.4688-.4689.7322-1.1048.7322-1.7678 0-.6631-.2634-1.2989-.7322-1.7678-.4689-.4688-1.1048-.7322-1.7678-.7322zm5.795-10h13.41c2.2601-1.5001 4.8846-2.3592 7.5943-2.4859 2.7096-.1267 5.4029.4837 7.7931 1.7663 2.3902 1.2825 4.3879 3.1893 5.7804 5.5172 1.3924 2.3279 2.1276 4.9898 2.1272 7.7024 0 8.285-6.715 25-15 25-4.94 0-9.3225-5.945-12.055-12.5h-5.89c-2.73 6.555-7.115 12.5-12.055 12.5-8.285 0-15-16.715-15-25-.0004-2.7126.7348-5.3745 2.1272-7.7024 1.3925-2.3279 3.3902-4.2347 5.7804-5.5172 2.3902-1.2826 5.0835-1.893 7.7931-1.7663 2.7097.1267 5.3342.9858 7.5943 2.4859zm21.705 10c.663 0 1.2989-.2634 1.7678-.7322.4688-.4689.7322-1.1048.7322-1.7678 0-.6631-.2634-1.2989-.7322-1.7678-.4689-.4688-1.1048-.7322-1.7678-.7322s-1.2989.2634-1.7678.7322c-.4688.4689-.7322 1.1047-.7322 1.7678 0 .663.2634 1.2989.7322 1.7678.4689.4688 1.1048.7322 1.7678.7322zm-5 5c.663 0 1.2989-.2634 1.7678-.7322.4688-.4689.7322-1.1048.7322-1.7678 0-.6631-.2634-1.2989-.7322-1.7678-.4689-.4688-1.1048-.7322-1.7678-.7322s-1.2989.2634-1.7678.7322c-.4688.4689-.7322 1.1047-.7322 1.7678 0 .663.2634 1.2989.7322 1.7678.4689.4688 1.1048.7322 1.7678.7322zm10 0c.663 0 1.2989-.2634 1.7678-.7322.4688-.4689.7322-1.1048.7322-1.7678 0-.6631-.2634-1.2989-.7322-1.7678-.4689-.4688-1.1048-.7322-1.7678-.7322s-1.2989.2634-1.7678.7322c-.4688.4689-.7322 1.1047-.7322 1.7678 0 .663.2634 1.2989.7322 1.7678.4689.4688 1.1048.7322 1.7678.7322zm-5 5c.663 0 1.2989-.2634 1.7678-.7322.4688-.4689.7322-1.1048.7322-1.7678 0-.6631-.2634-1.2989-.7322-1.7678-.4689-.4688-1.1048-.7322-1.7678-.7322s-1.2989.2634-1.7678.7322c-.4688.4689-.7322 1.1047-.7322 1.7678 0 .663.2634 1.2989.7322 1.7678.4689.4688 1.1048.7322 1.7678.7322z" fill="#fcb100"/></g></svg>